FILE "Street Fighter Zero (Japan) (Track 01).bin" BINARY
  TRACK 01 MODE2/2352
    INDEX 01 00:00:00
  TRACK 02 AUDIO
    INDEX 00 10:43:56
    INDEX 01 10:45:56
  TRACK 03 AUDIO
    INDEX 00 11:29:50
    INDEX 01 11:31:50
  TRACK 04 AUDIO
    INDEX 00 11:38:01
    INDEX 01 11:40:01
  TRACK 05 AUDIO
    INDEX 00 11:46:40
    INDEX 01 11:48:40
  TRACK 06 AUDIO
    INDEX 00 11:53:42
    INDEX 01 11:55:42
  TRACK 07 AUDIO
    INDEX 00 12:20:43
    INDEX 01 12:22:43
  TRACK 08 AUDIO
    INDEX 00 12:47:43
    INDEX 01 12:49:43
  TRACK 09 AUDIO
    INDEX 00 13:04:55
    INDEX 01 13:06:55
  TRACK 10 AUDIO
    INDEX 00 13:12:44
    INDEX 01 13:14:44
  TRACK 11 AUDIO
    INDEX 00 14:41:40
    INDEX 01 14:43:40
  TRACK 12 AUDIO
    INDEX 00 16:10:34
    INDEX 01 16:12:34
  TRACK 13 AUDIO
    INDEX 00 17:16:29
    INDEX 01 17:18:29
  TRACK 14 AUDIO
    INDEX 00 18:27:51
    INDEX 01 18:29:51
  TRACK 15 AUDIO
    INDEX 00 19:32:34
    INDEX 01 19:34:34
  TRACK 16 AUDIO
    INDEX 00 20:32:57
    INDEX 01 20:34:57
  TRACK 17 AUDIO
    INDEX 00 21:26:20
    INDEX 01 21:28:20
  TRACK 18 AUDIO
    INDEX 00 22:26:51
    INDEX 01 22:28:51
  TRACK 19 AUDIO
    INDEX 00 23:33:50
    INDEX 01 23:35:50
  TRACK 20 AUDIO
    INDEX 00 24:48:56
    INDEX 01 24:50:56
  TRACK 21 AUDIO
    INDEX 00 25:47:42
    INDEX 01 25:49:42
  TRACK 22 AUDIO
    INDEX 00 27:10:04
    INDEX 01 27:12:04
  TRACK 23 AUDIO
    INDEX 00 28:10:47
    INDEX 01 28:12:47
  TRACK 24 AUDIO
    INDEX 00 29:09:43
    INDEX 01 29:11:43
  TRACK 25 AUDIO
    INDEX 00 30:17:19
    INDEX 01 30:19:19
  TRACK 26 AUDIO
    INDEX 00 32:28:20
    INDEX 01 32:30:20
  TRACK 27 AUDIO
    INDEX 00 33:59:24
    INDEX 01 34:01:24
  TRACK 28 AUDIO
    INDEX 00 35:42:33
    INDEX 01 35:44:33
  TRACK 29 AUDIO
    INDEX 00 36:56:07
    INDEX 01 36:58:07
  TRACK 30 AUDIO
    INDEX 00 38:28:13
    INDEX 01 38:30:13
  TRACK 31 AUDIO
    INDEX 00 40:50:73
    INDEX 01 40:52:73
  TRACK 32 AUDIO
    INDEX 00 42:50:19
    INDEX 01 42:52:19
  TRACK 33 AUDIO
    INDEX 00 44:36:43
    INDEX 01 44:38:43
  TRACK 34 AUDIO
    INDEX 00 45:54:18
    INDEX 01 45:56:18
  TRACK 35 AUDIO
    INDEX 00 47:31:48
    INDEX 01 47:33:48
  TRACK 36 AUDIO
    INDEX 00 49:45:52
    INDEX 01 49:47:52
  TRACK 37 AUDIO
    INDEX 00 51:44:47
    INDEX 01 51:46:47
  TRACK 38 AUDIO
    INDEX 00 53:49:69
    INDEX 01 53:51:69
  TRACK 39 AUDIO
    INDEX 00 54:14:70
    INDEX 01 54:16:70
  TRACK 40 AUDIO
    INDEX 00 54:36:72
    INDEX 01 54:38:72
  TRACK 41 AUDIO
    INDEX 00 55:01:73
    INDEX 01 55:03:73
  TRACK 42 AUDIO
    INDEX 00 55:30:73
    INDEX 01 55:32:73
  TRACK 43 AUDIO
    INDEX 00 56:03:31
    INDEX 01 56:05:31
  TRACK 44 AUDIO
    INDEX 00 56:35:31
    INDEX 01 56:37:31
  TRACK 45 AUDIO
    INDEX 00 57:12:73
    INDEX 01 57:14:73
  TRACK 46 AUDIO
    INDEX 00 57:55:59
    INDEX 01 57:57:59
  TRACK 47 AUDIO
    INDEX 00 58:26:60
    INDEX 01 58:28:60
  TRACK 48 AUDIO
    INDEX 00 58:49:58
    INDEX 01 58:51:58
  TRACK 49 AUDIO
    INDEX 00 59:32:62
    INDEX 01 59:34:62
  TRACK 50 AUDIO
    INDEX 00 61:21:47
    INDEX 01 61:23:47
  TRACK 51 AUDIO
    INDEX 00 61:49:49
    INDEX 01 61:51:49
  TRACK 52 AUDIO
    INDEX 00 62:20:12
    INDEX 01 62:22:12
